<?xml version="1.0" standalone="no"?>
<!DOCTYPE svg PUBLIC "-//W3C//DTD SVG 20010904//EN"
 "http://www.w3.org/TR/2001/REC-SVG-20010904/DTD/svg10.dtd">
<svg version="1.0" xmlns="http://www.w3.org/2000/svg"
 width="542.000000pt" height="542.000000pt" viewBox="0 0 542.000000 542.000000"
 preserveAspectRatio="xMidYMid meet">
<metadata>
Created by potrace 1.11, written by Peter Selinger 2001-2013
</metadata>
<g transform="translate(0.000000,542.000000) scale(0.100000,-0.100000)"
fill="#000000" stroke="none">
<path d="M3677 5190 c-17 -14 -23 -30 -25 -76 -7 -128 -71 -361 -133 -487 -36
-71 -115 -205 -129 -217 -3 -3 -29 -34 -57 -70 -105 -134 -198 -198 -343 -237
-58 -16 -111 -18 -520 -15 -250 1 -610 4 -800 7 -190 3 -617 8 -950 11 l-605
7 -25 -27 -25 -28 -2 -1421 c-1 -782 -3 -1439 -6 -1459 -3 -27 2 -43 19 -65
l22 -28 1104 -2 c1294 -3 1633 -7 1708 -23 95 -20 359 -167 447 -249 12 -12
26 -21 30 -21 9 0 178 -163 233 -225 93 -105 175 -214 202 -271 17 -35 37 -64
44 -64 8 0 14 -4 14 -8 0 -5 7 -9 15 -9 8 0 15 5 15 10 0 6 3 8 6 4 12 -12 44
29 44 57 0 51 -66 157 -176 281 -202 228 -259 283 -412 398 -184 139 -322 213
-457 246 -76 19 -132 20 -1195 26 -613 3 -1203 6 -1312 6 l-196 -1 5 1353 c3
743 7 1354 9 1356 5 5 1927 1 2279 -6 176 -3 338 -5 360 -5 40 1 204 51 257
78 15 8 31 14 35 14 5 0 33 16 63 34 53 33 124 102 186 183 16 20 47 59 70 87
85 107 157 238 198 362 18 55 20 62 41 179 8 44 21 116 30 160 23 116 23 118
12 142 -13 28 -52 35 -80 13z"/>
<path d="M5195 4232 c-4 -4 -11 -8 -16 -8 -5 -1 -13 -2 -19 -3 -5 0 -18 -10
-28 -21 -17 -19 -40 -28 -82 -34 -9 -1 -20 -5 -26 -8 -6 -4 -22 -9 -36 -12
-15 -2 -37 -10 -50 -17 -12 -7 -24 -12 -25 -11 -2 1 -4 2 -5 1 -2 0 -12 -2
-23 -4 -11 -1 -31 -5 -45 -8 -14 -3 -38 -9 -55 -12 -16 -3 -43 -8 -60 -12 -16
-4 -34 -8 -40 -9 -5 -1 -30 -7 -55 -14 -25 -7 -46 -12 -47 -11 -2 0 -23 -8
-48 -19 -25 -11 -47 -20 -50 -20 -3 0 -25 -9 -50 -20 -45 -19 -113 -40 -150
-45 -66 -9 -232 -78 -282 -117 -6 -5 -46 -28 -90 -52 -104 -57 -180 -105 -224
-140 -20 -16 -56 -40 -81 -55 -44 -26 -139 -86 -188 -120 -14 -10 -45 -27 -70
-39 -25 -12 -67 -42 -94 -67 -27 -25 -53 -45 -58 -45 -5 0 -61 -24 -124 -54
-74 -36 -114 -60 -114 -70 0 -20 21 -20 68 0 20 8 62 20 92 25 30 5 93 25 140
45 47 20 112 44 145 55 33 10 88 32 122 49 34 17 99 42 145 56 46 13 106 35
133 48 48 23 179 70 208 75 4 0 34 14 67 31 33 17 62 29 64 28 2 -2 12 4 22
13 35 29 108 54 224 75 65 13 104 25 215 68 69 27 179 60 260 77 168 36 149
31 211 52 29 10 56 17 60 16 17 -5 134 34 145 47 6 8 18 14 25 14 8 0 14 4 14
9 0 5 7 16 15 24 8 8 17 29 20 47 3 17 6 35 7 38 1 4 -1 23 -5 42 -7 37 -39
80 -72 97 -26 14 -82 23 -90 15z"/>
<path d="M1454 3890 c-5 -5 -34 -11 -64 -14 -67 -7 -97 -13 -130 -25 -43 -17
-145 -45 -153 -42 -5 1 -6 -2 -3 -7 3 -5 -12 -15 -34 -22 -22 -7 -47 -21 -56
-31 -9 -10 -20 -16 -25 -13 -4 2 -13 -5 -19 -16 -6 -11 -15 -18 -20 -15 -5 3
-15 -3 -22 -13 -7 -10 -24 -26 -38 -35 -13 -9 -20 -17 -15 -17 12 0 -26 -27
-39 -28 -5 0 -15 -14 -24 -31 -8 -17 -19 -28 -25 -24 -5 3 -7 1 -4 -4 4 -6 0
-16 -8 -23 -8 -7 -15 -19 -15 -27 0 -8 -4 -12 -9 -8 -5 3 -12 -4 -16 -15 -3
-11 -12 -26 -18 -32 -18 -19 -106 -199 -112 -227 -2 -12 -8 -28 -13 -35 -12
-14 -32 -107 -32 -149 0 -22 -3 -28 -9 -18 -6 9 -11 -16 -16 -69 -7 -75 -5
-85 15 -112 12 -16 20 -35 17 -41 -2 -7 -5 -15 -6 -19 0 -5 -9 -17 -18 -27
-43 -47 -69 -90 -64 -106 1 -5 -1 -7 -5 -3 -10 10 -33 -22 -34 -46 0 -11 -3
-16 -7 -12 -7 6 -19 -13 -61 -96 -10 -21 -21 -35 -25 -32 -8 8 -19 -56 -14
-86 3 -19 13 -27 43 -36 25 -7 33 -13 24 -17 -10 -4 -8 -6 8 -7 12 -2 25 -4
30 -5 4 -2 17 -6 30 -10 18 -6 22 -15 22 -47 0 -23 -4 -37 -10 -33 -6 3 -10
-4 -11 -17 0 -13 -2 -31 -4 -40 -2 -11 10 -25 32 -38 19 -11 31 -16 28 -10 -3
6 1 7 10 4 12 -5 13 -10 4 -20 -6 -8 -15 -11 -20 -8 -13 7 -33 -41 -25 -61 3
-9 15 -19 26 -22 11 -3 17 -9 14 -14 -3 -5 -1 -9 5 -9 5 0 12 -8 15 -17 6 -20
-17 -117 -26 -108 -3 3 -8 -14 -11 -38 -6 -46 -1 -98 11 -107 4 -3 13 -17 21
-33 10 -18 28 -31 55 -39 23 -7 44 -16 47 -21 4 -6 49 -7 110 -4 57 4 108 7
112 7 5 0 5 6 1 13 -5 7 0 6 11 -3 10 -8 16 -10 12 -4 -8 14 61 22 113 13 19
-4 31 -7 26 -8 -6 0 -1 -8 10 -16 10 -8 15 -15 9 -15 -5 0 -4 -4 3 -8 7 -5 15
-40 18 -83 4 -41 9 -101 13 -134 l6 -60 65 -7 c49 -5 793 -11 1148 -8 30 0 42
4 42 15 0 8 -4 15 -9 15 -10 0 -37 69 -33 83 1 5 -2 6 -7 3 -9 -6 -41 113 -41
153 0 10 -6 21 -12 24 -20 6 -18 348 2 373 13 16 13 17 0 9 -12 -7 -13 -6 -4
6 7 8 15 33 19 57 4 23 11 42 16 42 5 0 9 6 9 13 0 18 24 67 33 67 4 0 7 7 7
15 0 8 11 22 25 31 13 9 27 24 30 35 4 11 11 17 16 14 5 -4 9 -2 9 3 0 9 44
71 77 107 10 11 18 22 18 25 0 3 9 19 20 35 37 56 45 70 56 98 6 15 15 27 19
27 5 0 14 25 21 55 7 30 15 52 19 50 7 -5 16 38 26 130 3 28 10 55 15 61 5 6
4 16 -4 24 -6 7 -7 10 -1 7 16 -9 18 92 2 111 -10 12 -10 14 0 8 6 -4 12 -3
12 3 0 5 -4 13 -10 16 -5 3 -9 20 -8 38 2 53 -23 179 -44 227 -19 40 -25 60
-27 83 -1 5 -5 6 -10 3 -4 -3 -13 13 -20 34 -6 22 -16 40 -21 40 -6 0 -10 6
-10 14 0 7 -7 19 -15 26 -9 7 -13 15 -10 18 3 3 -4 11 -15 19 -11 8 -20 21
-20 30 0 9 -3 13 -7 10 -3 -4 -14 7 -24 23 -11 17 -26 30 -36 30 -9 0 -14 3
-10 6 6 6 -16 34 -28 34 -3 0 -18 13 -33 28 -15 16 -42 35 -60 43 -18 8 -32
17 -32 20 0 4 -15 13 -32 20 -18 7 -39 19 -46 26 -7 7 -21 13 -30 13 -10 0
-27 7 -38 15 -12 8 -34 17 -50 20 -16 3 -36 8 -44 10 -8 2 -28 4 -45 4 -23 1
-27 4 -15 11 11 7 6 10 -20 11 -19 0 -44 2 -55 4 -61 11 -115 15 -249 21 -127
6 -148 5 -141 -7 7 -11 6 -12 -6 -2 -10 8 -19 9 -25 3z m252 -199 c-3 -5 5 -8
19 -8 32 0 86 -23 80 -33 -3 -5 3 -7 12 -5 10 2 18 4 18 5 0 1 21 3 47 5 26 1
46 -1 43 -5 -3 -4 8 -10 23 -13 18 -4 38 -20 53 -41 13 -19 26 -31 29 -26 5 8
31 13 66 11 23 -1 104 -69 104 -88 0 -6 15 -14 34 -17 45 -9 74 -36 81 -76 7
-38 23 -63 36 -54 5 3 9 1 9 -4 0 -4 10 -19 22 -32 27 -29 31 -105 7 -121 -8
-5 -9 -9 -3 -9 6 0 17 -12 25 -27 8 -16 20 -34 26 -41 7 -7 16 -31 19 -53 4
-23 11 -36 17 -32 7 4 8 -8 3 -36 -5 -30 -3 -40 5 -36 8 5 7 0 -1 -15 -8 -15
-8 -20 -1 -16 6 4 11 3 11 -3 0 -5 -4 -13 -10 -16 -5 -3 -10 -11 -10 -16 0 -6
6 -7 13 -3 9 6 9 4 1 -7 -6 -8 -15 -31 -18 -52 -5 -27 -21 -52 -51 -83 -39
-39 -44 -49 -46 -94 -2 -27 -5 -50 -8 -50 -4 0 -12 -13 -19 -29 -17 -38 -59
-55 -125 -49 -49 4 -54 2 -65 -21 -7 -14 -12 -32 -12 -41 0 -10 -9 -27 -20
-40 -11 -13 -20 -29 -20 -36 0 -7 -9 -16 -20 -19 -11 -3 -26 -13 -34 -21 -24
-23 -95 -19 -151 10 -27 14 -46 26 -40 26 5 0 -1 7 -13 16 -13 9 -25 14 -27
13 -4 -5 -14 -85 -15 -119 0 -20 -2 -22 -10 -10 -8 12 -10 9 -10 -12 0 -21 -5
-27 -22 -26 -37 0 -68 8 -66 16 5 21 -16 101 -25 95 -6 -4 -8 4 -5 21 3 14 2
26 -2 26 -4 0 -13 20 -19 45 -6 25 -15 45 -20 45 -5 0 -12 14 -16 31 -4 19
-16 34 -30 39 -13 5 -25 14 -27 20 -2 6 -36 17 -76 23 -40 7 -70 15 -67 19 3
3 -10 9 -30 12 -19 4 -46 18 -59 31 -13 13 -26 22 -29 19 -3 -3 -10 10 -16 29
-10 29 -10 56 2 109 2 12 -3 13 -112 22 -47 3 -89 10 -95 15 -6 5 -25 11 -41
14 -70 9 -117 50 -118 103 -1 21 -6 34 -14 34 -8 0 -24 11 -37 25 -13 13 -27
21 -31 17 -5 -4 -5 -2 -1 5 3 6 2 14 -4 18 -11 7 -14 95 -4 144 4 17 10 28 15
25 5 -3 9 3 9 14 0 18 50 82 64 82 4 0 18 12 32 27 19 20 21 28 12 35 -10 6
-10 8 0 8 6 0 12 6 12 13 0 22 46 55 85 63 25 4 39 14 45 29 5 13 18 26 30 30
11 3 18 10 15 15 -6 9 24 19 80 27 22 3 43 10 47 17 6 8 8 7 8 -1 0 -25 49
-13 84 21 25 25 48 37 80 41 49 8 107 -2 119 -19 5 -8 9 -8 15 1 10 16 57 33
92 33 16 0 32 5 35 10 3 6 8 10 11 10 3 0 3 -4 0 -9z"/>
<path d="M4677 2838 c-19 -10 -290 -14 -457 -6 -113 5 -214 -5 -427 -45 -40
-8 -75 -12 -77 -9 -5 4 -117 -26 -236 -64 -78 -26 -227 -68 -295 -85 -55 -13
-105 -41 -105 -57 0 -11 12 -13 58 -7 31 3 73 10 92 15 19 5 73 12 120 16 47
3 119 15 160 27 64 17 111 20 310 23 129 1 280 3 336 4 55 0 114 -4 130 -11
16 -6 81 -12 144 -14 63 -1 140 -8 170 -14 73 -15 130 -19 130 -9 0 4 9 8 20
8 11 0 20 5 20 10 0 6 6 10 13 10 29 0 58 109 36 136 -6 8 -9 14 -5 14 3 0 -2
8 -11 18 -10 11 -21 17 -25 15 -3 -2 -8 2 -10 7 -5 16 -72 29 -91 18z"/>
<path d="M2790 1991 c0 -16 12 -21 68 -31 38 -6 73 -10 78 -9 26 7 125 -17
216 -53 57 -22 130 -47 163 -55 33 -8 72 -21 86 -28 42 -23 111 -43 169 -50
43 -5 64 -14 98 -43 39 -33 114 -66 242 -107 25 -8 83 -31 130 -51 47 -19 117
-46 155 -59 94 -31 157 -59 224 -99 31 -19 74 -40 96 -47 22 -6 54 -18 70 -24
17 -7 44 -16 61 -19 17 -4 40 -15 51 -26 34 -31 105 -62 144 -63 101 -2 179
108 136 193 -15 29 -72 70 -99 70 -10 0 -36 12 -57 26 -31 20 -189 70 -277 88
-6 1 -24 10 -39 20 -24 16 -215 89 -223 86 -6 -3 -70 13 -97 25 -113 48 -370
135 -400 135 -8 0 -30 9 -49 21 -19 11 -45 21 -58 23 -13 1 -28 4 -33 7 -6 3
-39 6 -75 8 -36 1 -90 9 -121 17 -30 7 -107 18 -170 24 -63 5 -159 16 -214 25
-55 8 -139 15 -187 15 -80 0 -88 -2 -88 -19z"/>
</g>
</svg>
